<mxfile host="app.diagrams.net" modified="2023-05-16T13:59:33.821Z" agent="Mozilla/5.0 (Windows NT 10.0; Win64; x64) AppleWebKit/537.36 (KHTML, like Gecko) Chrome/115.0.0.0 Safari/537.36 Edg/115.0.0.0" etag="cx2R6vkWPTE5Se2OlQpa" version="21.3.0" type="github">
  <diagram name="第 1 页" id="l_syPJzlnjPqEEr46ZRa">
    <mxGraphModel dx="1422" dy="780" grid="1" gridSize="10" guides="1" tooltips="1" connect="1" arrows="1" fold="1" page="1" pageScale="1" pageWidth="827" pageHeight="1169" math="0" shadow="0">
      <root>
        <mxCell id="0" />
        <mxCell id="1" parent="0" />
        <mxCell id="OMgu2SZa8DHDWM3YxXOs-13" style="rounded=0;orthogonalLoop=1;jettySize=auto;html=1;exitX=0.5;exitY=1;exitDx=0;exitDy=0;entryX=0.5;entryY=0;entryDx=0;entryDy=0;fontFamily=Helvetica;fontSize=18;fontColor=default;strokeWidth=3;" parent="1" source="OMgu2SZa8DHDWM3YxXOs-1" target="OMgu2SZa8DHDWM3YxXOs-2" edge="1">
          <mxGeometry relative="1" as="geometry" />
        </mxCell>
        <mxCell id="OMgu2SZa8DHDWM3YxXOs-1" value="第一章 绪论" style="rounded=1;whiteSpace=wrap;html=1;fontSize=18;" parent="1" vertex="1">
          <mxGeometry x="60" y="60" width="260" height="130" as="geometry" />
        </mxCell>
        <mxCell id="OMgu2SZa8DHDWM3YxXOs-14" style="edgeStyle=none;shape=connector;rounded=0;orthogonalLoop=1;jettySize=auto;html=1;exitX=0.5;exitY=1;exitDx=0;exitDy=0;entryX=0.5;entryY=0;entryDx=0;entryDy=0;labelBackgroundColor=default;strokeWidth=3;fontFamily=Helvetica;fontSize=18;fontColor=default;endArrow=classic;" parent="1" source="OMgu2SZa8DHDWM3YxXOs-2" target="OMgu2SZa8DHDWM3YxXOs-7" edge="1">
          <mxGeometry relative="1" as="geometry" />
        </mxCell>
        <mxCell id="OMgu2SZa8DHDWM3YxXOs-26" style="edgeStyle=orthogonalEdgeStyle;shape=connector;rounded=0;orthogonalLoop=1;jettySize=auto;html=1;exitX=1;exitY=0.5;exitDx=0;exitDy=0;entryX=0;entryY=0.5;entryDx=0;entryDy=0;labelBackgroundColor=default;strokeWidth=3;fontFamily=Helvetica;fontSize=18;fontColor=default;endArrow=classic;" parent="1" source="OMgu2SZa8DHDWM3YxXOs-2" target="OMgu2SZa8DHDWM3YxXOs-24" edge="1">
          <mxGeometry relative="1" as="geometry" />
        </mxCell>
        <mxCell id="OMgu2SZa8DHDWM3YxXOs-27" style="edgeStyle=orthogonalEdgeStyle;shape=connector;rounded=0;orthogonalLoop=1;jettySize=auto;html=1;exitX=1;exitY=0.5;exitDx=0;exitDy=0;entryX=0;entryY=0.5;entryDx=0;entryDy=0;labelBackgroundColor=default;strokeWidth=3;fontFamily=Helvetica;fontSize=18;fontColor=default;endArrow=classic;" parent="1" source="OMgu2SZa8DHDWM3YxXOs-2" target="OMgu2SZa8DHDWM3YxXOs-25" edge="1">
          <mxGeometry relative="1" as="geometry" />
        </mxCell>
        <mxCell id="OMgu2SZa8DHDWM3YxXOs-29" style="edgeStyle=orthogonalEdgeStyle;shape=connector;rounded=0;orthogonalLoop=1;jettySize=auto;html=1;exitX=1;exitY=0.5;exitDx=0;exitDy=0;entryX=0;entryY=0.5;entryDx=0;entryDy=0;labelBackgroundColor=default;strokeWidth=3;fontFamily=Helvetica;fontSize=18;fontColor=default;endArrow=classic;" parent="1" source="OMgu2SZa8DHDWM3YxXOs-2" target="OMgu2SZa8DHDWM3YxXOs-28" edge="1">
          <mxGeometry relative="1" as="geometry" />
        </mxCell>
        <mxCell id="OMgu2SZa8DHDWM3YxXOs-31" style="edgeStyle=orthogonalEdgeStyle;shape=connector;rounded=0;orthogonalLoop=1;jettySize=auto;html=1;exitX=1;exitY=0.5;exitDx=0;exitDy=0;entryX=0;entryY=0.5;entryDx=0;entryDy=0;labelBackgroundColor=default;strokeWidth=3;fontFamily=Helvetica;fontSize=18;fontColor=default;endArrow=classic;" parent="1" source="OMgu2SZa8DHDWM3YxXOs-2" target="OMgu2SZa8DHDWM3YxXOs-30" edge="1">
          <mxGeometry relative="1" as="geometry" />
        </mxCell>
        <mxCell id="OMgu2SZa8DHDWM3YxXOs-2" value="第二章 相关理论知识及技术" style="rounded=1;whiteSpace=wrap;html=1;fontFamily=Helvetica;fontSize=18;" parent="1" vertex="1">
          <mxGeometry x="60" y="270" width="260" height="130" as="geometry" />
        </mxCell>
        <mxCell id="OMgu2SZa8DHDWM3YxXOs-32" style="edgeStyle=none;shape=connector;rounded=0;orthogonalLoop=1;jettySize=auto;html=1;exitX=0.5;exitY=1;exitDx=0;exitDy=0;entryX=0.5;entryY=0;entryDx=0;entryDy=0;labelBackgroundColor=default;strokeWidth=3;fontFamily=Helvetica;fontSize=18;fontColor=default;endArrow=classic;" parent="1" source="OMgu2SZa8DHDWM3YxXOs-7" target="OMgu2SZa8DHDWM3YxXOs-10" edge="1">
          <mxGeometry relative="1" as="geometry" />
        </mxCell>
        <mxCell id="OMgu2SZa8DHDWM3YxXOs-37" style="edgeStyle=orthogonalEdgeStyle;shape=connector;rounded=0;orthogonalLoop=1;jettySize=auto;html=1;exitX=1;exitY=0.5;exitDx=0;exitDy=0;entryX=0;entryY=0.5;entryDx=0;entryDy=0;labelBackgroundColor=default;strokeWidth=3;fontFamily=Helvetica;fontSize=18;fontColor=default;endArrow=classic;" parent="1" source="OMgu2SZa8DHDWM3YxXOs-7" target="OMgu2SZa8DHDWM3YxXOs-35" edge="1">
          <mxGeometry relative="1" as="geometry" />
        </mxCell>
        <mxCell id="OMgu2SZa8DHDWM3YxXOs-38" style="edgeStyle=orthogonalEdgeStyle;shape=connector;rounded=0;orthogonalLoop=1;jettySize=auto;html=1;exitX=1;exitY=0.5;exitDx=0;exitDy=0;entryX=0;entryY=0.5;entryDx=0;entryDy=0;labelBackgroundColor=default;strokeWidth=3;fontFamily=Helvetica;fontSize=18;fontColor=default;endArrow=classic;" parent="1" source="OMgu2SZa8DHDWM3YxXOs-7" target="OMgu2SZa8DHDWM3YxXOs-36" edge="1">
          <mxGeometry relative="1" as="geometry" />
        </mxCell>
        <mxCell id="OMgu2SZa8DHDWM3YxXOs-39" style="edgeStyle=orthogonalEdgeStyle;shape=connector;rounded=0;orthogonalLoop=1;jettySize=auto;html=1;exitX=1;exitY=0.5;exitDx=0;exitDy=0;entryX=0;entryY=0.5;entryDx=0;entryDy=0;labelBackgroundColor=default;strokeWidth=3;fontFamily=Helvetica;fontSize=18;fontColor=default;endArrow=classic;" parent="1" source="OMgu2SZa8DHDWM3YxXOs-7" target="OMgu2SZa8DHDWM3YxXOs-34" edge="1">
          <mxGeometry relative="1" as="geometry" />
        </mxCell>
        <mxCell id="OMgu2SZa8DHDWM3YxXOs-7" value="第三章 相关理论知识及技术" style="rounded=1;whiteSpace=wrap;html=1;fontFamily=Helvetica;fontSize=18;" parent="1" vertex="1">
          <mxGeometry x="60" y="490" width="260" height="130" as="geometry" />
        </mxCell>
        <mxCell id="OMgu2SZa8DHDWM3YxXOs-17" style="edgeStyle=none;shape=connector;rounded=0;orthogonalLoop=1;jettySize=auto;html=1;exitX=0.5;exitY=1;exitDx=0;exitDy=0;entryX=0.5;entryY=0;entryDx=0;entryDy=0;labelBackgroundColor=default;strokeWidth=3;fontFamily=Helvetica;fontSize=18;fontColor=default;endArrow=classic;" parent="1" source="OMgu2SZa8DHDWM3YxXOs-10" target="OMgu2SZa8DHDWM3YxXOs-11" edge="1">
          <mxGeometry relative="1" as="geometry" />
        </mxCell>
        <mxCell id="OMgu2SZa8DHDWM3YxXOs-43" style="edgeStyle=orthogonalEdgeStyle;shape=connector;rounded=0;orthogonalLoop=1;jettySize=auto;html=1;exitX=1;exitY=0.5;exitDx=0;exitDy=0;entryX=0;entryY=0.5;entryDx=0;entryDy=0;labelBackgroundColor=default;strokeWidth=3;fontFamily=Helvetica;fontSize=18;fontColor=default;endArrow=classic;" parent="1" source="OMgu2SZa8DHDWM3YxXOs-10" target="OMgu2SZa8DHDWM3YxXOs-40" edge="1">
          <mxGeometry relative="1" as="geometry" />
        </mxCell>
        <mxCell id="OMgu2SZa8DHDWM3YxXOs-44" style="edgeStyle=orthogonalEdgeStyle;shape=connector;rounded=0;orthogonalLoop=1;jettySize=auto;html=1;exitX=1;exitY=0.5;exitDx=0;exitDy=0;entryX=0;entryY=0.5;entryDx=0;entryDy=0;labelBackgroundColor=default;strokeWidth=3;fontFamily=Helvetica;fontSize=18;fontColor=default;endArrow=classic;" parent="1" source="OMgu2SZa8DHDWM3YxXOs-10" target="OMgu2SZa8DHDWM3YxXOs-41" edge="1">
          <mxGeometry relative="1" as="geometry" />
        </mxCell>
        <mxCell id="OMgu2SZa8DHDWM3YxXOs-45" style="edgeStyle=orthogonalEdgeStyle;shape=connector;rounded=0;orthogonalLoop=1;jettySize=auto;html=1;exitX=1;exitY=0.5;exitDx=0;exitDy=0;entryX=0;entryY=0.5;entryDx=0;entryDy=0;labelBackgroundColor=default;strokeWidth=3;fontFamily=Helvetica;fontSize=18;fontColor=default;endArrow=classic;" parent="1" source="OMgu2SZa8DHDWM3YxXOs-10" target="OMgu2SZa8DHDWM3YxXOs-42" edge="1">
          <mxGeometry relative="1" as="geometry" />
        </mxCell>
        <mxCell id="OMgu2SZa8DHDWM3YxXOs-10" value="第四章 系统实现" style="rounded=1;whiteSpace=wrap;html=1;fontFamily=Helvetica;fontSize=18;" parent="1" vertex="1">
          <mxGeometry x="60" y="720" width="260" height="130" as="geometry" />
        </mxCell>
        <mxCell id="OMgu2SZa8DHDWM3YxXOs-18" style="edgeStyle=none;shape=connector;rounded=0;orthogonalLoop=1;jettySize=auto;html=1;exitX=0.5;exitY=1;exitDx=0;exitDy=0;entryX=0.5;entryY=0;entryDx=0;entryDy=0;labelBackgroundColor=default;strokeWidth=3;fontFamily=Helvetica;fontSize=18;fontColor=default;endArrow=classic;" parent="1" source="OMgu2SZa8DHDWM3YxXOs-11" target="OMgu2SZa8DHDWM3YxXOs-12" edge="1">
          <mxGeometry relative="1" as="geometry" />
        </mxCell>
        <mxCell id="OMgu2SZa8DHDWM3YxXOs-49" style="edgeStyle=orthogonalEdgeStyle;shape=connector;rounded=0;orthogonalLoop=1;jettySize=auto;html=1;exitX=1;exitY=0.5;exitDx=0;exitDy=0;entryX=0;entryY=0.5;entryDx=0;entryDy=0;labelBackgroundColor=default;strokeWidth=3;fontFamily=Helvetica;fontSize=18;fontColor=default;endArrow=classic;" parent="1" source="OMgu2SZa8DHDWM3YxXOs-11" target="OMgu2SZa8DHDWM3YxXOs-46" edge="1">
          <mxGeometry relative="1" as="geometry" />
        </mxCell>
        <mxCell id="OMgu2SZa8DHDWM3YxXOs-50" style="edgeStyle=orthogonalEdgeStyle;shape=connector;rounded=0;orthogonalLoop=1;jettySize=auto;html=1;exitX=1;exitY=0.5;exitDx=0;exitDy=0;entryX=0;entryY=0.5;entryDx=0;entryDy=0;labelBackgroundColor=default;strokeWidth=3;fontFamily=Helvetica;fontSize=18;fontColor=default;endArrow=classic;" parent="1" source="OMgu2SZa8DHDWM3YxXOs-11" target="OMgu2SZa8DHDWM3YxXOs-47" edge="1">
          <mxGeometry relative="1" as="geometry" />
        </mxCell>
        <mxCell id="OMgu2SZa8DHDWM3YxXOs-51" style="edgeStyle=orthogonalEdgeStyle;shape=connector;rounded=0;orthogonalLoop=1;jettySize=auto;html=1;exitX=1;exitY=0.5;exitDx=0;exitDy=0;entryX=0;entryY=0.5;entryDx=0;entryDy=0;labelBackgroundColor=default;strokeWidth=3;fontFamily=Helvetica;fontSize=18;fontColor=default;endArrow=classic;" parent="1" source="OMgu2SZa8DHDWM3YxXOs-11" target="OMgu2SZa8DHDWM3YxXOs-48" edge="1">
          <mxGeometry relative="1" as="geometry" />
        </mxCell>
        <mxCell id="OMgu2SZa8DHDWM3YxXOs-11" value="第五章 系统测试" style="rounded=1;whiteSpace=wrap;html=1;fontFamily=Helvetica;fontSize=18;" parent="1" vertex="1">
          <mxGeometry x="60" y="970" width="260" height="130" as="geometry" />
        </mxCell>
        <mxCell id="OMgu2SZa8DHDWM3YxXOs-12" value="第六章 总结与展望" style="rounded=1;whiteSpace=wrap;html=1;fontFamily=Helvetica;fontSize=18;" parent="1" vertex="1">
          <mxGeometry x="60" y="1220" width="260" height="130" as="geometry" />
        </mxCell>
        <mxCell id="OMgu2SZa8DHDWM3YxXOs-24" value="微信小程序" style="rounded=1;whiteSpace=wrap;html=1;fontFamily=Helvetica;fontSize=18;" parent="1" vertex="1">
          <mxGeometry x="630" y="210" width="260" height="50" as="geometry" />
        </mxCell>
        <mxCell id="OMgu2SZa8DHDWM3YxXOs-25" value="Java、SSM框架" style="rounded=1;whiteSpace=wrap;html=1;fontFamily=Helvetica;fontSize=18;" parent="1" vertex="1">
          <mxGeometry x="630" y="270" width="260" height="50" as="geometry" />
        </mxCell>
        <mxCell id="OMgu2SZa8DHDWM3YxXOs-28" value="MySQL数据库" style="rounded=1;whiteSpace=wrap;html=1;fontFamily=Helvetica;fontSize=18;" parent="1" vertex="1">
          <mxGeometry x="630" y="330" width="260" height="50" as="geometry" />
        </mxCell>
        <mxCell id="OMgu2SZa8DHDWM3YxXOs-30" value="ChatGPT" style="rounded=1;whiteSpace=wrap;html=1;fontFamily=Helvetica;fontSize=18;" parent="1" vertex="1">
          <mxGeometry x="630" y="390" width="260" height="50" as="geometry" />
        </mxCell>
        <mxCell id="OMgu2SZa8DHDWM3YxXOs-34" value="数据库设计" style="rounded=1;whiteSpace=wrap;html=1;fontFamily=Helvetica;fontSize=18;" parent="1" vertex="1">
          <mxGeometry x="630" y="590" width="260" height="50" as="geometry" />
        </mxCell>
        <mxCell id="OMgu2SZa8DHDWM3YxXOs-35" value="需求分析" style="rounded=1;whiteSpace=wrap;html=1;fontFamily=Helvetica;fontSize=18;" parent="1" vertex="1">
          <mxGeometry x="630" y="470" width="260" height="50" as="geometry" />
        </mxCell>
        <mxCell id="OMgu2SZa8DHDWM3YxXOs-36" value="系统设计" style="rounded=1;whiteSpace=wrap;html=1;fontFamily=Helvetica;fontSize=18;" parent="1" vertex="1">
          <mxGeometry x="630" y="530" width="260" height="50" as="geometry" />
        </mxCell>
        <mxCell id="OMgu2SZa8DHDWM3YxXOs-40" value="系统环境配置" style="rounded=1;whiteSpace=wrap;html=1;fontFamily=Helvetica;fontSize=18;" parent="1" vertex="1">
          <mxGeometry x="630" y="690" width="260" height="50" as="geometry" />
        </mxCell>
        <mxCell id="OMgu2SZa8DHDWM3YxXOs-41" value="系统部分功能流程图" style="rounded=1;whiteSpace=wrap;html=1;fontFamily=Helvetica;fontSize=18;" parent="1" vertex="1">
          <mxGeometry x="630" y="760" width="260" height="50" as="geometry" />
        </mxCell>
        <mxCell id="OMgu2SZa8DHDWM3YxXOs-42" value="系统功能模块的实现" style="rounded=1;whiteSpace=wrap;html=1;fontFamily=Helvetica;fontSize=18;" parent="1" vertex="1">
          <mxGeometry x="630" y="830" width="260" height="50" as="geometry" />
        </mxCell>
        <mxCell id="OMgu2SZa8DHDWM3YxXOs-46" value="测试目的" style="rounded=1;whiteSpace=wrap;html=1;fontFamily=Helvetica;fontSize=18;" parent="1" vertex="1">
          <mxGeometry x="630" y="940" width="260" height="50" as="geometry" />
        </mxCell>
        <mxCell id="OMgu2SZa8DHDWM3YxXOs-47" value="测试方法及用例" style="rounded=1;whiteSpace=wrap;html=1;fontFamily=Helvetica;fontSize=18;" parent="1" vertex="1">
          <mxGeometry x="630" y="1010" width="260" height="50" as="geometry" />
        </mxCell>
        <mxCell id="OMgu2SZa8DHDWM3YxXOs-48" value="测试结果" style="rounded=1;whiteSpace=wrap;html=1;fontFamily=Helvetica;fontSize=18;" parent="1" vertex="1">
          <mxGeometry x="630" y="1080" width="260" height="50" as="geometry" />
        </mxCell>
      </root>
    </mxGraphModel>
  </diagram>
</mxfile>
